<?xml version="1.0" encoding="UTF-8" standalone="no"?>
<!-- Created with Inkscape (http://www.inkscape.org/) -->

<svg
   width="210mm"
   height="297mm"
   viewBox="0 0 210 297"
   version="1.1"
   id="svg1"
   inkscape:version="1.3.2 (091e20e, 2023-11-25, custom)"
   sodipodi:docname="graphics.svg"
   xmlns:inkscape="http://www.inkscape.org/namespaces/inkscape"
   xmlns:sodipodi="http://sodipodi.sourceforge.net/DTD/sodipodi-0.dtd"
   xmlns="http://www.w3.org/2000/svg"
   xmlns:svg="http://www.w3.org/2000/svg">
  <sodipodi:namedview
     id="namedview1"
     pagecolor="#ffffff"
     bordercolor="#000000"
     borderopacity="0.25"
     inkscape:showpageshadow="2"
     inkscape:pageopacity="0.0"
     inkscape:pagecheckerboard="0"
     inkscape:deskcolor="#d1d1d1"
     inkscape:document-units="mm"
     inkscape:zoom="3.1509768"
     inkscape:cx="601.87685"
     inkscape:cy="497.46478"
     inkscape:window-width="1920"
     inkscape:window-height="991"
     inkscape:window-x="-9"
     inkscape:window-y="-9"
     inkscape:window-maximized="1"
     inkscape:current-layer="layer1" />
  <defs
     id="defs1" />
  <g
     inkscape:label="Layer 1"
     inkscape:groupmode="layer"
     id="layer1">
    <path
       id="rect1-1-0"
       style="fill:#ada4e3;fill-opacity:1;stroke:#000000;stroke-width:1.164;stroke-dasharray:none;stroke-opacity:1"
       d="m 172.70759,133.12055 c -1.65596,0 -2.98933,1.333 -2.98933,2.98896 v 5.38035 c 0,0.1104 0.007,0.21891 0.0183,0.32615 h 7.40772 c 1.65596,0 2.98897,-1.333 2.98897,-2.98896 v -5.38034 c 0,-0.11029 -0.007,-0.21903 -0.0183,-0.32616 z"
       inkscape:export-filename="..\public\icon.svg"
       inkscape:export-xdpi="96"
       inkscape:export-ydpi="96" />
    <path
       style="font-size:21.1712px;font-family:Bahnschrift;-inkscape-font-specification:Bahnschrift;fill:#6959cc;stroke-width:0.123472"
       d="M 13.0091,84.977329 V 100.00806 H 10.90025 V 84.977329 Z m 3.51475,15.030731 V 89.277729 h 2.10885 v 10.730331 z m 6.512625,0 v -6.502294 q 0,-1.137125 -0.589238,-1.757375 -0.5789,-0.62025 -1.654,-0.62025 -1.03375,0 -1.602312,0.547888 -0.558225,0.547887 -0.558225,1.540287 l -0.217088,-2.0675 q 0.4962,-0.971725 1.292188,-1.498937 0.806325,-0.527213 1.77805,-0.527213 1.747037,0 2.698087,1.147463 0.961388,1.137125 0.961388,3.2253 v 6.512631 z m 8.1046,0.0517 q -1.3232,0 -1.922775,-0.733963 -0.589237,-0.73396 -0.589237,-2.108848 V 86.155804 h 2.108849 v 11.0818 q 0,0.382487 0.155063,0.599573 0.155062,0.21709 0.45485,0.21709 H 32.3609 v 2.005473 z M 27.52295,91.179849 v -1.9021 h 4.83795 v 1.9021 z m 12.125888,8.983291 q -2.243237,0 -3.4734,-1.250843 -1.230162,-1.25084 -1.230162,-3.556098 v -1.209488 q 0,-2.3983 1.178475,-3.711162 1.188812,-1.312863 3.339012,-1.312863 2.02615,0 3.132263,1.4886 1.11645,1.4886 1.11645,4.17635 v 0.70295 h -7.23625 v -1.69535 h 5.230775 v 0 q -0.09304,-1.302525 -0.682275,-2.036487 -0.5789,-0.733963 -1.560963,-0.733963 -1.188812,0 -1.850412,0.78565 -0.6616,0.78565 -0.6616,2.222563 v 1.36455 q 0,1.333537 0.70295,2.046825 0.713287,0.713283 1.995137,0.713283 0.640925,0 1.271513,-0.25843 0.630587,-0.258441 1.126787,-0.723628 v 0 l 1.385225,1.385228 v 0 q -0.795987,0.76497 -1.788387,1.18881 -0.9924,0.413503 -1.995138,0.413503 z m 6.957137,-0.15506 V 89.277729 h 2.10885 v 10.730331 z m 5.902713,-8.187306 q -0.279113,-0.341138 -0.70295,-0.516875 -0.423838,-0.175738 -0.982063,-0.175738 -1.002737,0 -1.560962,0.558225 -0.547888,0.547888 -0.547888,1.52995 l -0.217087,-2.0675 q 0.485862,-0.95105 1.271512,-1.4886 0.795988,-0.53755 1.747038,-0.53755 0.733962,0 1.3232,0.217088 0.599575,0.20675 1.044087,0.62025 z m 6.926123,8.342366 q -1.426575,0 -2.594713,-0.413503 -1.1578,-0.42384 -2.077837,-1.26118 v 0 l 1.250837,-1.540283 v 0 q 0.878688,0.6616 1.726363,0.992403 0.858012,0.3308 1.69535,0.3308 1.250837,0 1.871087,-0.38249 0.630588,-0.392826 0.630588,-1.168138 0,-0.599575 -0.423838,-0.847675 -0.4135,-0.2481 -1.095775,-0.320463 -0.671937,-0.0827 -1.44725,-0.134387 -0.651262,-0.05169 -1.292187,-0.155063 -0.640925,-0.113712 -1.168138,-0.392825 -0.527212,-0.28945 -0.847675,-0.847675 -0.310125,-0.558225 -0.310125,-1.498937 0,-1.705688 1.044088,-2.553363 1.044087,-0.847675 3.111587,-0.847675 1.261175,0 2.346613,0.341138 1.085437,0.341137 2.036487,1.044087 v 0 l -1.271512,1.540288 v 0 q -0.806325,-0.516875 -1.591975,-0.775313 -0.775313,-0.258437 -1.519613,-0.258437 -1.0751,0 -1.61265,0.37215 -0.53755,0.361812 -0.53755,1.095775 0,0.485862 0.37215,0.70295 0.37215,0.20675 0.982063,0.268775 0.609912,0.06203 1.312862,0.113712 0.671938,0.04135 1.354213,0.155063 0.692612,0.103375 1.271512,0.4135 0.5789,0.310125 0.930375,0.920037 0.351475,0.609913 0.351475,1.664338 0,1.726358 -1.126787,2.584378 -1.11645,0.858013 -3.370025,0.858013 z m 11.577999,0 q -2.243237,0 -3.4734,-1.250843 -1.230162,-1.25084 -1.230162,-3.556098 v -1.209488 q 0,-2.3983 1.178475,-3.711162 1.188812,-1.312863 3.339012,-1.312863 2.02615,0 3.132262,1.4886 1.11645,1.4886 1.11645,4.17635 v 0.70295 h -7.236249 v -1.69535 h 5.230774 v 0 q -0.09304,-1.302525 -0.682275,-2.036487 -0.5789,-0.733963 -1.560962,-0.733963 -1.188812,0 -1.850412,0.78565 -0.6616,0.78565 -0.6616,2.222563 v 1.36455 q 0,1.333537 0.70295,2.046825 0.713287,0.713283 1.995137,0.713283 0.640925,0 1.271512,-0.25843 0.630588,-0.258441 1.126788,-0.723628 v 0 l 1.385225,1.385228 v 0 q -0.795988,0.76497 -1.788388,1.18881 -0.9924,0.413503 -1.995137,0.413503 z m 11.288553,0 q -2.212225,0 -3.43205,-1.219833 -1.209487,-1.21982 -1.209487,-3.442383 v -1.767713 q 0,-2.201887 1.209487,-3.401037 1.219825,-1.209488 3.43205,-1.209488 1.261175,0 2.27425,0.444513 1.013075,0.444512 1.61265,1.271512 v 0 l -1.519612,1.36455 v 0 q -0.444513,-0.516875 -1.054425,-0.795987 -0.609913,-0.279113 -1.28185,-0.279113 -1.219825,0 -1.891763,0.682275 -0.671937,0.682275 -0.671937,1.922775 v 1.767713 q 0,1.271512 0.671937,1.964125 0.671938,0.692608 1.891763,0.692608 0.671937,0 1.28185,-0.29978 0.609912,-0.299791 1.054425,-0.847678 v 0 l 1.519612,1.467928 v 0 q -0.599575,0.80632 -1.622987,1.25083 -1.013075,0.434183 -2.263913,0.434183 z m 9.003964,-0.10338 q -1.3232,0 -1.92278,-0.733963 -0.58923,-0.73396 -0.58923,-2.108848 V 86.155804 h 2.10885 v 11.0818 q 0,0.382487 0.15506,0.599573 0.15506,0.21709 0.45485,0.21709 h 1.01307 v 2.005473 z m -3.61813,-8.879911 v -1.9021 h 4.83795 v 1.9021 z m 7.73245,-4.09365 v -2.10885 h 2.10885 v 2.10885 z m 0,12.921881 V 89.277729 h 2.10885 v 10.730331 z m 9.427803,0.15506 q -2.10885,0 -3.26665,-1.219833 -1.1578,-1.23016 -1.1578,-3.452721 v -1.747037 q 0,-2.201888 1.1578,-3.411375 1.1578,-1.209488 3.26665,-1.209488 2.10885,0 3.26665,1.209488 1.1578,1.209487 1.1578,3.411375 v 1.77805 q 0,2.212228 -1.1578,3.432048 -1.1578,1.209493 -3.26665,1.209493 z m 0,-2.005483 q 1.10612,0 1.70569,-0.692608 0.60991,-0.692613 0.60991,-1.94345 v -1.77805 q 0,-1.250838 -0.60991,-1.933113 -0.59957,-0.682275 -1.70569,-0.682275 -1.09577,0 -1.70568,0.682275 -0.60992,0.682275 -0.60992,1.933113 v 1.77805 q 0,1.250837 0.60992,1.94345 0.60991,0.692608 1.70568,0.692608 z m 7.42232,1.850423 V 89.277729 h 2.10885 v 10.730331 z m 6.51263,0 v -6.502294 q 0,-1.137125 -0.58924,-1.757375 -0.5789,-0.62025 -1.654,-0.62025 -1.03375,0 -1.60231,0.547888 -0.55823,0.547887 -0.55823,1.540287 l -0.21708,-2.0675 q 0.4962,-0.971725 1.29218,-1.498937 0.80633,-0.527213 1.77805,-0.527213 1.74704,0 2.69809,1.147463 0.96139,1.137125 0.96139,3.2253 v 6.512631 z m 13.38706,0 V 86.207491 h 2.10885 v 13.800569 z m -4.24871,-13.025256 v -2.005475 h 10.60628 v 2.005475 z m 15.03072,13.180316 q -2.10885,0 -3.26665,-1.219833 -1.1578,-1.23016 -1.1578,-3.452721 v -1.747037 q 0,-2.201888 1.1578,-3.411375 1.1578,-1.209488 3.26665,-1.209488 2.10885,0 3.26665,1.209488 1.1578,1.209487 1.1578,3.411375 v 1.77805 q 0,2.212228 -1.1578,3.432048 -1.1578,1.209493 -3.26665,1.209493 z m 0,-2.005483 q 1.10612,0 1.70569,-0.692608 0.60991,-0.692613 0.60991,-1.94345 v -1.77805 q 0,-1.250838 -0.60991,-1.933113 -0.59957,-0.682275 -1.70569,-0.682275 -1.09577,0 -1.70568,0.682275 -0.60992,0.682275 -0.60992,1.933113 v 1.77805 q 0,1.250837 0.60992,1.94345 0.60991,0.692608 1.70568,0.692608 z m 11.53666,2.005483 q -2.10885,0 -3.26665,-1.219833 -1.1578,-1.23016 -1.1578,-3.452721 v -1.747037 q 0,-2.201888 1.1578,-3.411375 1.1578,-1.209488 3.26665,-1.209488 2.10885,0 3.26665,1.209488 1.1578,1.209487 1.1578,3.411375 v 1.77805 q 0,2.212228 -1.1578,3.432048 -1.1578,1.209493 -3.26665,1.209493 z m 0,-2.005483 q 1.10611,0 1.70568,-0.692608 0.60992,-0.692613 0.60992,-1.94345 v -1.77805 q 0,-1.250838 -0.60992,-1.933113 -0.59957,-0.682275 -1.70568,-0.682275 -1.09578,0 -1.70569,0.682275 -0.60991,0.682275 -0.60991,1.933113 v 1.77805 q 0,1.250837 0.60991,1.94345 0.60991,0.692608 1.70569,0.692608 z m 9.53117,-13.180308 v 12.260275 q 0,0.382487 0.1654,0.599573 0.17574,0.21709 0.48586,0.21709 h 0.9924 v 2.005473 h -1.2405 q -1.18881,0 -1.85041,-0.744303 -0.6616,-0.7443 -0.6616,-2.098508 v -12.2396 z"
       id="text1"
       aria-label="Intersection Tool"
       inkscape:export-filename="..\public\nameLogotype.svg"
       inkscape:export-xdpi="96"
       inkscape:export-ydpi="96" />
    <rect
       style="fill:none;fill-opacity:1;stroke:#000000;stroke-width:1.16445;stroke-dasharray:none;stroke-opacity:1"
       id="rect1"
       width="13.600391"
       height="11.358568"
       x="177.10072"
       y="85.559555"
       ry="2.9890971"
       inkscape:export-filename="..\public\logotype.svg"
       inkscape:export-xdpi="96"
       inkscape:export-ydpi="96" />
    <rect
       style="fill:none;fill-opacity:1;stroke:#000000;stroke-width:1.16445;stroke-dasharray:none;stroke-opacity:1"
       id="rect1-7"
       width="13.600391"
       height="11.358568"
       x="180.28609"
       y="88.222343"
       ry="2.9890971" />
    <path
       id="rect1-1"
       style="fill:#ada4e3;fill-opacity:1;stroke:#000000;stroke-width:1.164;stroke-dasharray:none;stroke-opacity:1;opacity:1"
       d="m 183.27537,88.222662 c -1.65596,0 -2.98933,1.333001 -2.98933,2.988962 v 5.380347 c 0,0.110398 0.007,0.21891 0.0183,0.326146 h 7.40772 c 1.65596,0 2.98897,-1.333 2.98897,-2.988956 v -5.380345 c 0,-0.11029 -0.007,-0.219027 -0.0183,-0.326154 z" />
    <rect
       style="fill:none;fill-opacity:1;stroke:#818181;stroke-width:1.16445;stroke-dasharray:none;stroke-opacity:1"
       id="rect1-9"
       width="13.600391"
       height="11.358568"
       x="166.53294"
       y="130.45744"
       ry="2.9890971"
       inkscape:export-filename="..\public\logotype.svg"
       inkscape:export-xdpi="96"
       inkscape:export-ydpi="96" />
    <rect
       style="fill:none;fill-opacity:1;stroke:#818181;stroke-width:1.16445;stroke-dasharray:none;stroke-opacity:1"
       id="rect1-7-5"
       width="13.600391"
       height="11.358568"
       x="169.71831"
       y="133.12024"
       ry="2.9890971" />
  </g>
</svg>
